<svg width="44" height="44" viewBox="0 0 44 44" fill="none" xmlns="http://www.w3.org/2000/svg">
<path d="M22 2C21.2454 2.66666 20.189 4.4 22 6M22 38C22.7546 38.6666 23.811 40.4 22 42M37 7.00542C35.937 6.93964 33.8506 7.44586 34.0084 9.99694M8.99152 33C9.0573 34.063 8.5511 36.1494 6 35.9916M8.00542 7C7.93958 8.06404 8.4463 10.1526 11 9.99458M34 33.0052C35.063 32.943 37.1494 33.4216 36.9916 35.8336M42 22C41.3334 21.2454 39.6 20.189 38 22M6 21C5.33334 21.7546 3.6 22.811 2 21" stroke="#FEDF6F" stroke-width="3" stroke-linecap="round"/>
</svg>
